# xmcd
#
# Track frame offsets: 
#        150
#        26831
#        46823
#        76024
#        99042
#        119326
#
# Disc length: 1954 seconds
#
# Revision: 0
# Processed by: cddbd v1.5.2PL0 Copyright (c) Steve Scherf et al.
# Submitted via: ExactAudioCopy v1.0b4
#
DISCID=3807a006
DTITLE=Lightnin' Hopkins -  Live At The Bird Lounge (LP)
DYEAR=1984
DGENRE=Blues
TTITLE0=I Heard My Children Crying
TTITLE1=Leave Jike Mary Alone
TTITLE2=You Treat Po' Lightnin' Wrong
TTITLE3=I'm Gonna Meet My Baby Somewhere
TTITLE4=Don't Treat That Man Way You Treat Me
TTITLE5=There's A Good Rockin' Tonight
EXTD=
EXTT0=
EXTT1=
EXTT2=
EXTT3=
EXTT4=
EXTT5=
PLAYORDER=
